<svg width="226" height="192" viewBox="0 0 226 192" fill="none" xmlns="http://www.w3.org/2000/svg">
<g filter="url(#filter0_dii_8_14)">
<path d="M121.862 76.8579C121.862 76.8585 121.862 76.8587 121.863 76.8582C126.61 69.9729 129.41 61.6231 129.41 52.6057C129.41 29.0784 110.467 10 87.0994 10C67.8675 10 51.6607 22.93 46.5253 40.6216C44.8134 46.5192 39.9456 51.502 33.8046 51.502C27.3662 51.502 22.0457 57.0709 24.803 62.889C27.6692 68.9366 32.5293 73.8368 38.5293 76.7297C44.0369 79.3853 48.8945 84.1594 49.9364 90.1844C56.2053 126.437 87.589 154 125.387 154C163.662 154 195.38 125.741 201.086 88.8128C202.098 82.2631 196.627 76.8574 190 76.8574H121.862C121.862 76.8574 121.862 76.8576 121.862 76.8579ZM74.1355 51.209C69.7781 51.209 66.2416 47.6504 66.2416 43.2629C66.2416 38.8663 69.7781 35.3077 74.1355 35.3077C78.4974 35.3077 82.0293 38.8663 82.0293 43.2629C82.0293 47.6504 78.4974 51.209 74.1355 51.209Z" fill="white"/>
<path d="M121.862 76.8579C121.862 76.8585 121.862 76.8587 121.863 76.8582C126.61 69.9729 129.41 61.6231 129.41 52.6057C129.41 29.0784 110.467 10 87.0994 10C67.8675 10 51.6607 22.93 46.5253 40.6216C44.8134 46.5192 39.9456 51.502 33.8046 51.502C27.3662 51.502 22.0457 57.0709 24.803 62.889C27.6692 68.9366 32.5293 73.8368 38.5293 76.7297C44.0369 79.3853 48.8945 84.1594 49.9364 90.1844C56.2053 126.437 87.589 154 125.387 154C163.662 154 195.38 125.741 201.086 88.8128C202.098 82.2631 196.627 76.8574 190 76.8574H121.862C121.862 76.8574 121.862 76.8576 121.862 76.8579ZM74.1355 51.209C69.7781 51.209 66.2416 47.6504 66.2416 43.2629C66.2416 38.8663 69.7781 35.3077 74.1355 35.3077C78.4974 35.3077 82.0293 38.8663 82.0293 43.2629C82.0293 47.6504 78.4974 51.209 74.1355 51.209Z" fill="url(#paint0_linear_8_14)"/>
</g>
<defs>
<filter id="filter0_dii_8_14" x="0.0580444" y="0" width="225.149" height="192" filterUnits="userSpaceOnUse" color-interpolation-filters="sRGB">
<feFlood flood-opacity="0" result="BackgroundImageFix"/>
<feColorMatrix in="SourceAlpha" type="matrix" values="0 0 0 0 0 0 0 0 0 0 0 0 0 0 0 0 0 0 127 0" result="hardAlpha"/>
<feOffset dy="14"/>
<feGaussianBlur stdDeviation="12"/>
<feColorMatrix type="matrix" values="0 0 0 0 0.0980392 0 0 0 0 0.0980392 0 0 0 0 0.172549 0 0 0 0.16 0"/>
<feBlend mode="normal" in2="BackgroundImageFix" result="effect1_dropShadow_8_14"/>
<feBlend mode="normal" in="SourceGraphic" in2="effect1_dropShadow_8_14" result="shape"/>
<feColorMatrix in="SourceAlpha" type="matrix" values="0 0 0 0 0 0 0 0 0 0 0 0 0 0 0 0 0 0 127 0" result="hardAlpha"/>
<feOffset dy="-10"/>
<feGaussianBlur stdDeviation="6"/>
<feComposite in2="hardAlpha" operator="arithmetic" k2="-1" k3="1"/>
<feColorMatrix type="matrix" values="0 0 0 0 0.0980392 0 0 0 0 0.0980392 0 0 0 0 0.172549 0 0 0 0.32 0"/>
<feBlend mode="normal" in2="shape" result="effect2_innerShadow_8_14"/>
<feColorMatrix in="SourceAlpha" type="matrix" values="0 0 0 0 0 0 0 0 0 0 0 0 0 0 0 0 0 0 127 0" result="hardAlpha"/>
<feOffset dy="-4"/>
<feGaussianBlur stdDeviation="2"/>
<feComposite in2="hardAlpha" operator="arithmetic" k2="-1" k3="1"/>
<feColorMatrix type="matrix" values="0 0 0 0 1 0 0 0 0 1 0 0 0 0 1 0 0 0 0.24 0"/>
<feBlend mode="normal" in2="effect2_innerShadow_8_14" result="effect3_innerShadow_8_14"/>
</filter>
<linearGradient id="paint0_linear_8_14" x1="112" y1="44" x2="112" y2="136" gradientUnits="userSpaceOnUse">
<stop stop-color="#FADB7E"/>
<stop offset="1" stop-color="#EEB304"/>
</linearGradient>
</defs>
</svg>
