<svg width="24" height="24" viewBox="0 0 24 24" fill="none" xmlns="http://www.w3.org/2000/svg">
<path d="M19 7.717V7.017C17.841 5.854 16.266 5.107 14.516 5.018C14.404 5.006 14.294 5 14.182 5C13.308 5 12.525 5.394 12.003 6.013C11.447 5.396 10.646 5.006 9.754 5.006C9.664 5.006 9.576 5.01 9.488 5.018C7.734 5.107 6.158 5.854 5 7.017V7.717L4 8.017V18.017L10.7 16.617L11 17.017H13L13.3 16.617L20 18.017V8.017L19 7.717ZM9.48 14.327C8.205 14.364 7.013 14.685 5.954 15.229L6 7.437C6.885 6.602 8.066 6.072 9.369 6.017C10.175 6.071 10.903 6.32 11.528 6.718L11.509 14.587C10.954 14.421 10.316 14.325 9.655 14.325C9.593 14.325 9.531 14.326 9.47 14.328L9.48 14.327ZM18 15.207C16.987 14.685 15.795 14.364 14.532 14.327C14.476 14.326 14.424 14.325 14.371 14.325C13.711 14.325 13.074 14.421 12.472 14.599L12.519 6.697C13.12 6.316 13.841 6.07 14.615 6.018C15.939 6.073 17.116 6.604 18.001 7.44L17.998 15.208L18 15.207Z" fill="#1C2E45" fill-opacity="0.6"/>
</svg>
